HIERARCHY
ROOT Hips
{
  OFFSET 1.44925e-005 102.336 -0.101585
  CHANNELS 6 Xposition Yposition Zposition Zrotation Xrotation Yrotation
  JOINT LeftUpLeg
  {
    OFFSET 8.9458 -8.66707 0.101652
    CHANNELS 3 Zrotation Xrotation Yrotation
    JOINT LeftLeg
    {
      OFFSET 0 -44.4227 1.3727
      CHANNELS 3 Zrotation Xrotation Yrotation
      JOINT LeftFoot
      {
        OFFSET -0.253549 -42.0924 -1.46059
        CHANNELS 3 Zrotation Xrotation Yrotation
        JOINT LeftToes
        {
          OFFSET -0.04 -4.41509 8.4991
          CHANNELS 3 Zrotation Xrotation Yrotation
          End Site
          {
            OFFSET 0.08 -0.047448 9.77979
          }
        }
      }
    }
  }
  JOINT Spine
  {
    OFFSET 0 11.8905 0
    CHANNELS 3 Zrotation Xrotation Yrotation
    JOINT Spine1
    {
      OFFSET 0 25.6574 0.127663
      CHANNELS 3 Zrotation Xrotation Yrotation
      JOINT RightShoulder
      {
        OFFSET -8.99 -0.362252 -0.22
        CHANNELS 3 Zrotation Xrotation Yrotation
        JOINT RightArm
        {
          OFFSET -10.2827 -0.00338 0.322123
          CHANNELS 3 Zrotation Xrotation Yrotation
          JOINT RightForeArm
          {
            OFFSET -26.364 0.099144 -1.42434
            CHANNELS 3 Zrotation Xrotation Yrotation
            JOINT RightHand
            {
              OFFSET -22.0324 0.085362 1.02216
              CHANNELS 3 Zrotation Xrotation Yrotation
              End Site
              {
                OFFSET -13.3284 -0.6 1.50291
              }
            }
          }
        }
      }
      JOINT LeftShoulder1
      {
        OFFSET 8.99 -0.362252 -0.22
        CHANNELS 3 Zrotation Xrotation Yrotation
        JOINT LeftArm
        {
          OFFSET 10.2827 -0.00337999 0.322123
          CHANNELS 3 Zrotation Xrotation Yrotation
          JOINT LeftForeArm
          {
            OFFSET 26.2597 0.099144 -1.42434
            CHANNELS 3 Zrotation Xrotation Yrotation
            JOINT LeftHand
            {
              OFFSET 22.0902 0.085362 1.02216
              CHANNELS 3 Zrotation Xrotation Yrotation
              End Site
              {
                OFFSET 13.419 -0.6 1.50291
              }
            }
          }
        }
      }
      JOINT Head
      {
        OFFSET 0 8.73416 0.011341
        CHANNELS 3 Zrotation Xrotation Yrotation
        End Site
        {
          OFFSET -0.29 12.7742 2.51395
        }
      }
    }
  }
  JOINT RightUpLeg
  {
    OFFSET -8.9458 -8.66707 0.101652
    CHANNELS 3 Zrotation Xrotation Yrotation
    JOINT RightLeg
    {
      OFFSET 0 -44.4227 1.3727
      CHANNELS 3 Zrotation Xrotation Yrotation
      JOINT RightFoot
      {
        OFFSET 0.253549 -42.0924 -1.46059
        CHANNELS 3 Zrotation Xrotation Yrotation
        JOINT RightToes
        {
          OFFSET 0.04 -4.41509 8.4991
          CHANNELS 3 Zrotation Xrotation Yrotation
          End Site
          {
            OFFSET -0.08 -0.137448 9.77979
          }
        }
      }
    }
  }
}
MOTION
Frames:	14
Frame Time:	0.0333333
71.969 93.6952 0.27573 2.34683 1.46646 -94.2424 2.66398 -35.5233 0.2145 7.53148 83.1011 11.6126 -13.1717 -16.3002 -0.934332 -1.3343e-009 8.75235e-006 -1.47976e-008 7.86864 46.0241 -3.7772 5.53881 5.01343 -2.33282 33.6326 1.83668 0.575285 34.8879 -9.23235 15.4536 -1.41472 25.4773 46.362 -20.6293 8.43455 3.08283 -32.2369 2.46 -2.91655 -43.1737 -17.6698 -57.1999 24.2338 22.4523 -94.4905 5.82328 9.61819 -0.917488 2.18162 -45.461 1.9621 6.26041 -34.3986 2.80875 -0.871189 44.7047 -7.90196 2.00978 -16.7238 -0.0700089 0.0462048 0.000530889 0.662642 
70.5674 93.9514 0.10531 2.19593 1.47838 -95.63 3.13134 -37.6155 1.04859 6.64626 82.4188 11.5453 -12.7721 -16.4588 -0.920722 -1.3343e-009 8.75235e-006 -1.47976e-008 7.36211 45.9481 -3.47829 5.43169 5.15114 -2.28685 33.6029 1.84058 0.589211 35.5109 -9.78312 13.7766 -1.2481 25.3015 46.9317 -20.0691 8.51088 2.87923 -31.7103 2.41089 -2.87612 -43.1465 -17.2394 -57.7013 24.1143 21.8663 -95.8262 5.82328 9.61819 -0.917488 2.03746 -45.3275 2.94929 6.64106 -33.2348 3.05495 -0.819667 44.6892 -6.84942 1.99375 -17.4444 -0.0631105 0.0462048 0.000530889 0.662642 
69.1936 94.2236 -0.0598046 2.01584 1.40661 -96.789 3.60537 -39.2711 1.6549 4.89497 80.1071 12.1911 -13.1091 -16.7363 -0.978698 -1.3343e-009 8.75235e-006 -1.47976e-008 6.87089 45.9439 -3.31115 5.21366 5.29122 -2.32929 33.6751 1.83832 0.579288 36.3054 -10.4393 12.3648 -0.959129 25.0157 47.8467 -19.4815 8.57331 2.76062 -31.4796 2.38729 -2.85237 -42.7849 -16.8278 -57.6262 24.0229 21.3125 -97.0906 5.82328 9.61819 -0.917488 1.96337 -45.1973 3.8501 6.80308 -31.9889 3.23699 -0.777894 44.57 -6.0396 2.06773 -18.2567 -0.0469376 0.0462048 0.000530889 0.662642 
67.8491 94.4945 -0.229308 1.89008 1.21744 -97.738 4.0614 -40.5637 2.10371 3.42952 76.2141 12.996 -13.608 -16.7301 -1.01876 -1.3343e-009 8.75235e-006 -1.47976e-008 6.24916 45.9794 -3.13408 4.97996 5.33593 -2.39509 33.8806 1.8342 0.5479 37.0266 -11.0745 11.0248 -0.80958 24.8277 49.175 -19.1374 8.61233 2.67106 -31.5119 2.38688 -2.84583 -42.3136 -16.3597 -57.0506 24.0176 20.832 -98.1858 5.82328 9.61819 -0.917488 1.75927 -45.0916 4.39567 6.79083 -30.7772 3.46175 -0.744722 44.3347 -5.45713 2.12601 -19.1207 -0.0306582 0.0462048 0.000530889 0.662642 
66.5649 94.7419 -0.396879 1.90089 0.870929 -98.5774 4.46949 -41.5836 2.44328 2.49662 70.8937 13.9787 -13.828 -16.4127 -0.99898 -1.3343e-009 8.75235e-006 -1.47976e-008 5.25253 45.9857 -2.7587 4.88147 5.31523 -2.43616 34.0368 1.83198 0.520347 37.6961 -11.611 9.73758 -0.892733 24.8046 50.7083 -18.9097 8.67246 2.39066 -31.8207 2.41133 -2.85869 -41.7821 -15.8548 -56.0606 24.0648 20.4038 -99.1515 5.82328 9.61819 -0.917488 1.42652 -45.0607 4.64464 6.73353 -29.8477 4.02731 -0.727609 44.1844 -5.18281 2.11021 -19.8461 -0.0232208 0.0462048 0.000530889 0.662642 
65.3468 94.9396 -0.541219 1.96776 0.398899 -99.2717 4.67221 -42.1992 2.41325 1.94564 64.3849 15.3918 -14.1106 -16.1532 -0.989727 -1.3343e-009 8.75235e-006 -1.47976e-008 4.01305 45.9743 -2.28343 4.90828 5.34961 -2.49549 34.0906 1.83124 0.507623 38.3024 -11.959 8.64928 -1.09027 24.8609 52.1242 -18.6471 8.74584 2.03205 -32.3817 2.45883 -2.88931 -41.0998 -15.3549 -54.8182 24.135 20.014 -100.015 5.82328 9.61819 -0.917488 1.1158 -45.1175 4.76254 6.59798 -29.1814 4.8028 -0.726637 44.281 -5.173 2.08761 -20.5007 -0.0176336 0.0462048 0.000530889 0.662642 
64.1665 95.0936 -0.643786 1.92039 -0.0829022 -99.7323 4.53957 -42.231 1.66405 1.64295 57.0134 17.414 -14.4368 -15.9389 -0.987817 -1.3343e-009 8.75235e-006 -1.47976e-008 2.92084 46.0792 -1.95343 4.83416 5.48534 -2.58723 34.1583 1.83099 0.497659 38.7721 -12.0882 7.84133 -1.38118 24.983 53.267 -18.3596 8.78394 1.90551 -32.9866 2.51131 -2.92424 -40.3385 -14.8278 -53.521 24.1692 19.737 -100.624 5.82328 9.61819 -0.917488 0.903847 -45.2243 4.74563 6.27324 -28.4675 5.35289 -0.728249 44.4797 -5.1993 2.08064 -21.2479 -0.00931327 0.0462048 0.000530889 0.662642 
63.0039 95.2125 -0.702261 1.73566 -0.463898 -99.9961 4.21795 -41.7859 0.228736 1.48584 49.2268 19.6738 -14.1087 -15.2019 -0.874778 -1.3343e-009 8.75235e-006 -1.47976e-008 2.10894 46.3693 -1.79497 4.55324 5.65273 -2.64104 34.2881 1.83119 0.480855 39.12 -12.077 7.22525 -1.75079 25.1589 54.1459 -18.155 8.78533 1.98394 -33.4467 2.55159 -2.95069 -39.6737 -14.2444 -52.2388 24.1079 19.6307 -100.87 5.82328 9.61819 -0.917488 0.752034 -45.3064 4.60226 5.85053 -27.6055 5.62576 -0.726797 44.6608 -5.1758 2.06629 -22.0409 -0.00142658 0.0462048 0.000530889 0.662642 
61.8412 95.2255 -0.72352 1.58827 -0.725893 -100.201 4.02157 -41.2633 -1.33219 1.38171 41.7292 21.3101 -12.9729 -13.8498 -0.64771 -1.3343e-009 8.75235e-006 -1.47976e-008 1.345 46.6517 -1.59146 4.30057 5.80093 -2.61964 34.4264 1.83184 0.464382 39.3796 -11.988 6.7314 -1.97129 25.2519 54.7502 -18.1892 8.77911 2.01073 -33.7991 2.58183 -2.96881 -39.1173 -13.6326 -50.9021 24.0355 19.5994 -100.952 5.82328 9.61819 -0.917488 0.6528 -45.2859 4.54963 5.57349 -26.938 5.9835 -0.735377 45.1373 -5.26612 2.08651 -22.8088 0.010729 0.0462048 0.000530889 0.662642 
60.644 95.053 -0.712936 1.57496 -0.956326 -100.435 4.01598 -40.9963 -2.44081 1.28362 35.3802 21.8603 -11.6137 -12.6131 -0.449879 -1.3343e-009 8.75235e-006 -1.47976e-008 0.362942 46.6978 -1.18252 4.27459 6.01226 -2.56171 34.5708 1.83291 0.455607 39.517 -11.8229 6.48489 -1.96943 25.228 55.0647 -18.4758 8.76234 1.99742 -34.0887 2.60598 -2.98166 -38.5692 -12.9837 -49.4911 24.0484 19.4982 -101.175 5.82328 9.61819 -0.917488 0.686267 -45.158 4.7521 5.48964 -26.6918 6.61113 -0.766183 46.2253 -5.60518 2.19193 -23.703 0.0371355 0.0462048 0.000530889 0.662642 
59.3961 94.7283 -0.663573 1.51834 -1.20339 -100.688 3.97609 -40.9404 -3.25019 1.20938 30.6976 21.8793 -10.2929 -11.7804 -0.320541 -1.3343e-009 8.75235e-006 -1.47976e-008 -0.761426 46.641 -0.670602 4.24646 6.40474 -2.46885 34.7814 1.83437 0.447629 39.551 -11.6676 6.65691 -2.1087 25.2997 55.2278 -18.6817 8.73307 2.10033 -34.1797 2.61332 -2.98504 -37.986 -12.2244 -48.1182 23.9566 19.3142 -101.6 5.82328 9.61819 -0.917488 0.910159 -45.0394 5.06289 5.45409 -26.5316 7.36037 -0.814582 47.7101 -6.14761 2.38557 -24.9045 0.0836062 0.0462048 0.000530889 0.662642 
58.096 94.3176 -0.544691 1.2196 -1.31791 -100.947 3.84695 -40.8252 -4.36191 1.18812 27.5988 22.3235 -8.85835 -10.8436 -0.200399 -1.3343e-009 8.75235e-006 -1.47976e-008 -1.58965 46.8254 -0.269844 3.89628 6.93892 -2.27634 35.036 1.83637 0.43427 39.6385 -11.6951 7.23587 -2.58801 25.5665 55.4774 -18.4806 8.73139 2.19815 -34.0357 2.60109 -2.9771 -37.2927 -11.3456 -46.8815 23.5302 19.1107 -102.148 5.82328 9.61819 -0.917488 1.2543 -45.0992 5.26603 5.48041 -26.0627 8.09814 -0.871787 49.2756 -6.75662 2.7192 -26.3814 0.163261 0.0462048 0.000530889 0.662642 
56.7185 93.8069 -0.323286 0.805189 -1.12537 -101.255 3.88779 -40.588 -5.46904 1.21232 25.8272 23.3471 -7.46474 -10.0084 -0.10918 -1.3343e-009 8.75235e-006 -1.47976e-008 -1.83145 47.2584 -0.0331428 3.32265 7.46718 -1.96913 35.1824 1.83985 0.427667 39.9408 -11.92 8.13447 -2.99764 25.7707 55.9169 -18.1445 8.76994 2.0916 -33.948 2.59391 -2.97461 -36.3371 -10.4731 -45.7343 23.0289 18.8555 -102.854 5.82328 9.61819 -0.917488 1.55833 -45.4131 5.39977 5.72946 -25.4168 8.82109 -0.931217 50.9645 -7.26556 3.27686 -27.9586 0.296026 0.0462048 0.000530889 0.662642 
55.2423 93.1885 0.00390515 0.604552 -0.670941 -101.664 4.26383 -40.4153 -5.44315 1.25389 25.3018 24.3883 -6.55169 -10.1151 -0.0959857 -1.3343e-009 8.75235e-006 -1.47976e-008 -1.71631 47.5934 0.164759 2.83421 7.95017 -1.6043 35.1092 1.8428 0.441873 40.4503 -12.1098 9.45423 -3.06089 25.7556 56.4733 -18.2499 8.78721 1.93048 -34.2011 2.61572 -2.98742 -35.1457 -9.74932 -44.5311 22.9274 18.4904 -103.713 5.82328 9.61819 -0.917488 1.73941 -45.8877 5.63761 6.18962 -24.9438 9.4955 -0.985899 52.7743 -7.53433 4.00226 -29.5396 0.479542 0.0462048 0.000530889 0.662642 
